<svg xmlns="http://www.w3.org/2000/svg" viewBox="0 0 24 24"><path d="M3.497 21.498c-.878 0-1.78-.256-2.605-1.004-1.712-1.552-.945-4.513 2.158-8.339a.751.751 0 0 1 1.26.795c-.625 1.313-.696 2.357-.198 2.941.412.483 1.249.644 2.082.398 5.003-1.423 16.633-4.731 16.707-4.751.539-.144.92.145 1.047.47.126.325.042.791-.443 1.045-.664.304-15.39 7.016-16.771 7.596-.856.359-2.024.849-3.237.849zm-1.104-5.766c-.867 1.545-1.248 2.966-.493 3.65 1.164 1.055 2.598.579 4.215-.101.679-.285 4.611-2.064 8.492-3.827l-7.996 2.274c-1.405.417-2.837.076-3.64-.865a2.77 2.77 0 0 1-.578-1.131zM5.75 11.5a.75.75 0 0 1-.696-1.029l2-5A.751.751 0 0 1 8.5 5.75v5a.75.75 0 0 1-1.5 0V9.645l-.554 1.384a.75.75 0 0 1-.696.471z"/><path d="M7.75 11.5a.75.75 0 0 1-.696-1.029l2-5a.75.75 0 0 1 1.392.558l-2 5a.75.75 0 0 1-.696.471zm2.886 0a.75.75 0 0 1-.696-1.029l2-5a.75.75 0 1 1 1.393.557l-2 5a.75.75 0 0 1-.697.472zm2.864 0a.75.75 0 0 1-.696-1.029l2-5a.75.75 0 1 1 1.393.557l-2 5a.751.751 0 0 1-.697.472z"/><path d="M15.75 11.5a.75.75 0 0 1-.724-.554l-.706-2.61a.75.75 0 0 1 .201-.733l2.456-2.39a.75.75 0 1 1 1.046 1.076l-2.14 2.083.591 2.184a.75.75 0 0 1-.724.944zm4.5 0h-2a.751.751 0 0 1-.696-1.029l2-5A.749.749 0 0 1 20.25 5h2a.75.75 0 0 1 0 1.5h-1.492l-1.4 3.5h.892a.75.75 0 0 1 0 1.5z"/><path d="M21.25 9h-2a.75.75 0 0 1 0-1.5h2a.75.75 0 0 1 0 1.5z"/></svg>